<?xml version="1.0" encoding="UTF-8"?>
<svg width="200px" height="200px" viewBox="0 0 200 200" version="1.1" xmlns="http://www.w3.org/2000/svg" xmlns:xlink="http://www.w3.org/1999/xlink">
    <!-- Generator: Sketch 54.1 (76490) - https://sketchapp.com -->
    <title>vassar</title>
    <desc>Created with Sketch.</desc>
    <defs>
        <polygon id="path-1" points="0.657789565 0.396694215 80.3701589 0.396694215 80.3701589 134.70782 0.657789565 134.70782"></polygon>
    </defs>
    <g id="vassar" stroke="none" stroke-width="1" fill="none" fill-rule="evenodd">
        <g id="vassar_BGL">
            <g id="Group-16" transform="translate(2.000000, 0.000000)">
                <g id="Group-3" transform="translate(12.394068, 0.429752)">
                    <mask id="mask-2" fill="white">
                        <use xlink:href="#path-1"></use>
                    </mask>
                    <g id="Clip-2"></g>
                    <path d="M29.2611547,37.433719 C29.4222775,37.1320661 29.4759852,36.8395041 29.3594809,36.4882645 C28.2076589,33.0361983 27.4384004,29.4593388 26.0155614,26.0965289 C24.5712394,22.6833058 22.5154767,19.6890909 19.4500106,17.5527273 C17.6817903,16.3213223 15.7160911,15.4221488 13.5934004,14.8452893 C9.76115466,13.8064463 5.85537076,13.4849587 1.91736229,13.3783471 C1.09439619,13.3560331 0.811811441,13.018843 0.906832627,12.2039669 C1.18032839,9.86842975 1.00763771,7.51966942 1.00020127,5.17834711 C0.997722458,4.45272727 0.627552966,3.74280992 0.659777542,2.96181818 C0.707701271,1.78247934 0.754798729,1.67834711 1.97106992,1.67834711 C5.96856992,1.67752066 9.96524364,1.68247934 13.9627436,1.68330579 C23.4111547,1.68495868 32.8645233,1.86842975 42.3054979,1.60479339 C46.7045657,1.48247934 51.1176801,1.38 55.5175742,1.11471074 C55.7026589,1.21305785 67.2316208,0.495702479 67.3993538,0.396528926 L71.1671504,0.396528926 C71.2745657,1.59322314 71.4381674,2.78909091 71.4778284,3.98826446 C71.5439301,6.03041322 71.5323623,8.07586777 71.5530191,10.1196694 C71.5637606,11.2155372 71.3010064,11.5973554 70.1904979,11.587438 C67.5051165,11.5626446 64.8610487,11.9031405 62.287214,12.5808264 C60.2430191,13.1196694 58.3029343,13.965124 56.5198411,15.1973554 C54.0319386,16.9171901 52.7396504,19.3841322 52.1356462,22.1642975 C51.5960911,24.6494215 51.8662818,27.2047934 52.6404979,29.6618182 C52.6735487,29.7667769 52.8371504,29.8304132 52.9396081,29.9130579 C52.8445869,30.9080992 53.5576589,31.6940496 53.6625953,32.618843 C53.9542691,35.1857851 54.9325742,37.5824793 55.4779131,40.0899174 C55.9084004,42.0692562 56.5776801,43.994876 56.6859216,46.0428099 C56.6925318,46.1568595 56.7925106,46.265124 56.848697,46.3758678 C57.5543326,47.711405 57.5353284,49.2452893 58.0228284,50.6477686 C58.4731462,51.9444628 58.8201801,53.287438 59.0928496,54.6345455 C59.4043538,56.1775207 59.8364936,57.694876 60.2347564,59.2072727 C60.6677225,60.848595 61.0626801,62.5056198 61.5369597,64.1395041 C61.9401801,65.5279339 62.2706886,66.9361983 62.6152436,68.341157 C63.2787394,71.0469421 64.1405403,73.7039669 64.7908157,76.4130579 C65.3576377,78.7742149 65.9715572,81.1287603 66.6061335,83.4659504 C67.2927648,85.9932231 67.9752648,88.5328926 68.6627225,91.0601653 C69.3229131,93.4915702 69.9376589,95.9477686 70.565625,98.3915702 C71.6215996,102.498182 72.7436758,106.588264 73.8459216,110.683306 C74.1599047,111.850248 74.3970445,113.041157 74.7688665,114.194876 C75.1993538,115.532893 75.6901589,116.870083 75.9314301,118.246942 C76.1999682,119.772562 76.7353919,121.216364 77.0815996,122.71719 C77.6715572,125.26843 78.4738665,127.770083 79.1877648,130.293223 C79.5802436,131.680826 79.9760275,133.067603 80.3701589,134.45438 C80.1611123,134.651901 79.8958792,134.638678 79.6339513,134.679174 C78.6837394,134.827107 77.8343326,134.358512 76.921303,134.26595 C75.3290784,134.10314 73.7277648,133.944463 72.1619809,133.626281 C69.1270869,133.010579 66.1054131,132.318017 63.0936547,131.594876 C61.0659852,131.108099 59.069714,130.493223 57.0470021,129.982479 C56.3463242,129.80562 56.0662182,129.401488 56.0521716,128.732066 C55.3209216,126.289091 54.6367691,123.830413 53.8278496,121.413058 C53.5741843,120.655207 53.6179767,119.846942 53.2709428,119.127107 C52.6107521,117.756033 52.3570869,116.251901 51.9464301,114.808099 C51.5704767,113.486612 51.1680826,112.161818 50.7689936,110.852727 C50.1013665,108.660992 49.4370445,106.458512 48.8132097,104.259339 C48.1174894,101.804793 47.3060911,99.3791736 46.7128284,96.8923967 C46.3616631,95.4238017 45.8502013,93.9940496 45.4279767,92.5428099 C44.7785275,90.3089256 44.1505614,88.0684298 43.5027648,85.8345455 C42.8458792,83.5684298 42.1683369,81.3080992 41.5155826,79.0403306 C40.8529131,76.7386777 40.2290784,74.426281 39.5540148,72.1287603 C38.926875,69.9932231 38.1609216,67.8940496 37.6213665,65.7370248 C36.7934428,62.4254545 35.6003072,59.2163636 34.8963242,55.872562 C34.7996504,55.4122314 34.5220233,55.1138843 34.1039301,54.9287603 C34.3071928,53.7444628 33.515625,52.7990083 33.3371504,51.718843 C33.0967055,50.2601653 32.531536,48.9006612 32.2142479,47.4642975 C31.8713453,45.9130579 31.2896504,44.4155372 30.8360275,42.887438 C30.2972987,41.0733884 29.7850106,39.2519008 29.2611547,37.433719" id="Fill-1" fill="#AC0032" mask="url(#mask-2)"></path>
                </g>
                <path d="M41.6552225,37.8634711 C42.1790784,39.6816529 42.6913665,41.5031405 43.2300953,43.3171901 C43.6837182,44.8452893 44.2654131,46.3428099 44.6083157,47.8940496 C44.9256038,49.3304132 45.4907733,50.6899174 45.7312182,52.148595 C45.9096928,53.2287603 46.7012606,54.1742149 46.4979979,55.3585124 C45.8535064,55.3816529 45.6403284,56.0163636 45.1685275,56.3047934 C43.4597987,57.3527273 41.8303919,58.541157 40.3654131,59.9006612 C36.6604131,63.3386777 33.2884004,67.0254545 31.1219174,71.7155372 C29.7792267,74.6229752 28.5893962,77.5345455 28.1688242,80.7229752 C28.0961123,81.2775207 28.1597352,81.8642975 28.0043962,82.3907438 C27.3285064,84.6990083 27.5557309,87.0750413 27.7689089,89.3634711 C28.095286,92.8766942 28.9124682,96.3138843 30.3757945,99.602314 C31.4177225,101.946942 32.5364936,104.241157 33.9948623,106.31719 C36.7438665,110.230413 39.9911123,113.70562 43.771303,116.675041 C45.4535911,117.994876 47.183803,119.244463 48.9619386,120.419669 C50.7623835,121.609752 52.6016631,122.772562 54.5334852,123.724628 C56.485964,124.687438 58.4822352,125.584959 60.4636335,126.49157 C62.7796716,127.551074 65.2857521,128.146116 67.4910699,129.45438 C67.8463665,129.664298 68.1892691,129.463471 68.4462394,129.161818 C68.460286,129.83124 68.7403919,130.235372 69.4410699,130.412231 C71.4637818,130.922975 73.460053,131.537851 75.4877225,132.024628 C78.4994809,132.747769 81.5211547,133.440331 84.5560487,134.056033 C86.1218326,134.374215 87.7231462,134.532893 89.3153708,134.695702 C90.2284004,134.788264 91.0778072,135.25686 92.0280191,135.108926 C92.289947,135.06843 92.5551801,135.081653 92.7642267,134.884132 C94.958803,135.25438 97.1897352,135.21719 99.4016631,135.520496 C101.215328,135.76843 103.100879,135.853554 104.975689,135.846116 C107.738739,135.835372 110.504269,135.875041 113.269799,135.862645 C112.924417,138.125455 111.897362,140.18 111.26857,142.359339 C110.676133,144.409752 109.839121,146.389917 109.187193,148.426281 C108.734396,149.845289 108.331176,151.277521 107.665201,152.618017 C107.446239,152.56843 107.22232,152.462645 107.008316,152.479174 C103.992426,152.713884 100.974883,152.848595 97.9490784,152.798182 C97.4904979,152.582479 97.0046504,152.579174 96.5088877,152.578347 C93.7111335,152.574215 90.9084216,152.651074 88.1164513,152.513884 C85.4789936,152.384959 82.8663242,151.858512 80.218125,151.800661 C78.7027436,151.767603 77.2080191,151.638678 75.7711335,151.14281 C75.3629555,151.001488 75.0770657,150.95686 74.9142903,151.427934 C73.344375,151.103967 71.7860275,150.692397 70.2004131,150.475041 C66.0797987,149.908926 62.0789936,148.807273 58.0781886,147.746116 C54.7532733,146.863471 51.4539725,145.825455 48.2430826,144.597355 C46.5814513,143.960992 44.9330403,143.20562 43.2821504,142.521322 C41.2429131,141.675868 39.2482945,140.739504 37.2726801,139.776694 C35.4879343,138.907273 33.7692903,137.884959 32.0456886,136.883306 C29.8395445,135.602314 27.6862818,134.248595 25.6082097,132.777521 C23.0872564,130.993223 20.7067691,129.030413 18.3618114,127.016364 C16.2531674,125.206446 14.3163877,123.234545 12.5217267,121.134545 C10.6221292,118.912231 8.88695975,116.557686 7.288125,114.097355 C6.15943856,112.360165 5.09354873,110.575041 4.24414195,108.71719 C2.40073093,104.686612 1.07373941,100.474215 0.35157839,96.0642975 C-0.144184322,93.0328926 0.0409004237,90.0097521 0.00702330508,86.9808264 C-0.0342902542,83.3923967 0.778760593,79.9171901 1.82151483,76.5328926 C2.9064089,73.0105785 4.33420551,69.6196694 6.2214089,66.3990083 C8.97454449,61.6990083 12.3283792,57.5105785 16.2143326,53.7428099 C18.8807097,51.1568595 21.7966208,48.8593388 24.8406038,46.7163636 C27.2467055,45.0221488 29.7593962,43.4957025 32.3299258,42.0998347 C34.2080403,41.08 36.1076377,40.0510744 38.1270445,39.2758678 C39.3069597,38.8221488 40.3943326,38.1271074 41.6552225,37.8634711" id="Fill-4" fill="#7B7B7B"></path>
                <path d="M107.664871,152.618017 C108.331672,151.277521 108.734066,149.845289 109.187689,148.426281 C109.83879,146.389917 110.676629,144.409752 111.268239,142.359339 C111.897032,140.18 112.924087,138.125455 113.269468,135.862645 C113.98915,134.527934 114.315528,133.041983 114.775761,131.622149 C115.169066,130.410579 115.585506,129.19157 115.977159,127.98 C116.638176,125.930413 117.303324,123.875041 117.970951,121.827934 C118.630316,119.808099 119.36735,117.806446 119.963091,115.759339 C120.224193,114.860165 120.42415,113.901488 120.852159,113.053554 C121.447074,111.870083 121.726354,110.58 122.116354,109.338678 C122.468345,108.219669 122.836036,107.084132 123.221905,105.989091 C123.916799,104.016364 124.613345,102.03124 125.213218,100.039504 C125.839532,97.9642975 126.581523,95.9271074 127.195443,93.8477686 C128.019235,91.0519008 129.118176,88.3386777 129.992371,85.5568595 C130.278261,84.6477686 130.637689,83.765124 130.897964,82.8477686 C131.265655,81.5519008 131.673833,80.2676033 132.0911,78.9857851 C132.761206,76.9279339 133.465189,74.88 134.133642,72.8213223 C134.773176,70.8543802 135.319341,68.8543802 136.032413,66.9147107 C136.529002,65.565124 137.051206,64.2138843 137.361057,62.8246281 C137.627943,61.6320661 138.105528,60.518843 138.460824,59.372562 C139.189595,57.026281 139.936544,54.6808264 140.725633,52.3519008 C141.126375,51.1692562 141.378388,49.9345455 141.941078,48.8080992 C142.255061,47.6667769 142.29968,47.5990083 143.474638,48.0543802 C145.285824,48.7560331 147.048261,49.5890909 148.847879,50.3105785 C151.340739,51.3089256 153.715443,52.5320661 156.046354,53.8279339 C156.754468,54.2221488 158.021142,54.2775207 157.963303,55.5990083 C157.246926,56.248595 157.346078,57.2312397 157.025485,58.0386777 C156.22896,60.0477686 155.674532,62.1527273 154.994511,64.2097521 C154.366544,66.1097521 153.689002,67.9932231 153.055252,69.8907438 C152.367794,71.9469421 151.713388,74.0138843 151.026756,76.0700826 C150.633451,77.2494215 150.186439,78.411405 149.794786,79.5915702 C149.134595,81.5841322 148.509108,83.5882645 147.85057,85.5816529 C147.191206,87.5783471 146.502095,89.565124 145.840252,91.5609917 C145.161057,93.6130579 144.505824,95.6717355 143.828282,97.7238017 C143.201142,99.6229752 142.558303,101.51719 141.920422,103.413058 C141.20735,105.529587 140.48271,107.64281 139.778727,109.762645 C139.098706,111.813884 138.436036,113.870909 137.770061,115.927107 C137.100782,117.988264 136.448028,120.055207 135.76718,122.111405 C135.127646,124.041157 134.398049,125.943636 133.820485,127.890744 C133.114023,130.279174 131.985337,132.537851 131.640782,135.035372 C131.209468,136.395702 130.721142,137.74281 130.366672,139.123802 C130.067561,140.286612 129.641206,141.420496 129.223112,142.519669 C128.786015,143.66595 128.471206,144.860992 128.066333,146.010579 C127.644934,147.208926 127.033494,148.382479 126.90129,149.693223 C126.855019,150.155207 126.236142,150.456033 126.436926,151.03124 C125.904807,151.443636 125.671799,152.125455 125.59165,152.662645 C125.390867,154.01719 124.806693,155.237851 124.411735,156.511405 C124.068006,157.620496 123.829214,158.788264 123.278091,159.836198 C122.832731,160.682479 122.752583,161.645289 122.400591,162.538678 C121.623896,164.516364 121.120697,166.602314 120.480337,168.636198 C120.136608,169.727934 119.737519,170.80314 119.36735,171.887438 C118.954214,173.096529 118.528684,174.301488 118.137032,175.518017 C117.49254,177.511405 116.85218,179.507273 116.244871,181.513058 C115.797858,182.986612 115.274002,184.436198 114.825337,185.909752 C114.460125,187.108926 114.151926,188.355207 113.581799,189.513884 C113.142222,190.408099 113.030676,191.45438 112.756354,192.422149 C112.346523,193.865124 111.716905,195.283306 111.672286,196.815537 C111.647498,197.648595 111.207922,197.902314 110.464278,198.082479 C108.634913,198.526281 106.787371,198.708926 104.914214,198.751901 C104.6936,198.75686 104.47629,198.879174 104.257328,198.946942 C103.411227,198.694876 102.577519,198.620496 101.836354,199.222149 C101.50254,199.492397 101.173684,199.326281 100.822519,199.326281 C99.0881758,199.325455 97.415803,198.69157 95.6707182,198.837851 C93.3183242,198.80562 91.0791292,197.989091 88.7449131,197.830413 C88.2177521,197.79405 87.8864174,197.597355 87.8277521,197.011405 C87.6401886,195.169256 87.0601462,193.398182 86.5908242,191.630413 C85.9777309,189.322975 85.3679428,187.004793 84.6730487,184.714711 C83.9682394,182.390744 83.4559513,180.00562 82.6792564,177.707273 C81.9124767,175.437025 81.4762055,173.075868 80.6201886,170.833719 C80.2367987,169.829587 80.0145318,168.757686 79.741036,167.720496 C79.1287691,165.399835 78.4082606,163.106446 77.7191504,160.815537 C77.0812691,158.695702 76.5532818,156.532893 75.7674979,154.447769 C75.4047648,153.484959 75.1924131,152.437025 74.914786,151.427107 C75.0775614,150.95686 75.362625,151.001488 75.770803,151.14281 C77.2085148,151.638678 78.7024131,151.767603 80.2186208,151.800661 C82.8659936,151.858512 85.4786631,152.384959 88.1161208,152.513884 C90.9080911,152.651074 93.710803,152.574215 96.5093835,152.578347 C97.0043199,152.579174 97.4909936,152.582479 97.9487479,152.798182 C97.8487691,153.121322 97.9313962,153.433719 97.9594894,153.760992 C98.0528581,154.865124 98.6907394,155.809752 98.8361631,156.877521 C99.0600826,158.514711 99.7227521,160.02876 100.044998,161.638678 C100.373028,163.277521 100.861354,164.885785 101.289362,166.504793 C101.519066,167.373388 101.564511,168.340331 102.432922,168.879174 C102.810528,168.59405 102.757646,168.204793 102.810528,167.855207 C103.017095,166.485785 103.623578,165.238678 104.001184,163.920496 C104.341608,162.732893 104.834066,161.589091 105.209193,160.411405 C105.645464,159.046116 106.197413,157.710579 106.56593,156.339504 C106.901396,155.087438 107.663218,153.960992 107.664871,152.618017" id="Fill-6" fill="#AC0032"></path>
                <path d="M157.963386,55.5993388 C158.021225,54.2778512 156.754551,54.2216529 156.046436,53.827438 C153.715525,52.5315702 151.340822,51.3092562 148.847962,50.3100826 C147.048343,49.5894215 145.285907,48.7555372 143.47472,48.0538843 C142.299763,47.5985124 142.255144,47.6671074 141.941161,48.8084298 C141.761034,48.2439669 141.642877,47.6216529 140.904191,47.5133884 C139.559021,47.3150413 138.363407,46.6340496 137.047983,46.3290909 C135.447496,45.9571901 133.899064,45.3943802 132.302708,44.9927273 C130.831945,44.6216529 129.316564,44.42 127.878025,43.981157 C126.069318,43.4299174 124.204424,43.2158678 122.370102,42.9216529 C119.351733,42.4373554 116.325102,41.9323967 113.254678,41.751405 C110.798174,41.6059504 108.333407,41.281157 105.889297,41.2092562 C100.659,41.0571901 95.4270508,41.1158678 90.1901441,41.634876 C85.6910975,42.0795041 81.2482373,42.7646281 76.8161186,43.5836364 C74.4628983,44.0183471 72.1939576,44.8571901 69.7994237,45.1158678 C69.3829831,45.1604959 69.2664788,45.4671074 69.2449958,45.8191736 C69.2251653,46.1464463 69.2425169,46.4761983 69.2425169,46.805124 C69.1863305,46.6952066 69.0863517,46.5861157 69.0805678,46.4728926 C68.9715,44.4249587 68.3022203,42.4985124 67.8717331,40.5191736 C67.3272203,38.012562 66.348089,35.6158678 66.0564153,33.0489256 C65.9514788,32.1241322 65.2384068,31.3373554 65.3342542,30.342314 C67.7196992,29.5786777 70.19025,29.197686 72.6665847,28.9761983 C74.1109068,28.8464463 75.4792119,28.3778512 76.9243602,28.297686 C78.3670297,28.2183471 79.833661,28.1778512 81.238322,27.8786777 C83.9617119,27.2985124 86.7321992,27.3390083 89.477072,27.1778512 C91.1444873,27.0795041 92.7755466,26.7084298 94.4561822,26.7266116 C96.5301229,26.7505785 98.6081949,26.5555372 100.682962,26.581157 C102.857708,26.6076033 105.066331,26.5373554 107.199763,26.8117355 C110.441225,27.227438 113.724826,27.042314 116.927453,27.5844628 C121.166225,28.3009917 125.452919,28.6819835 129.669381,29.6009917 C131.355801,29.9679339 133.089318,30.2869421 134.773258,30.6720661 C137.550356,31.3076033 140.334064,31.9580165 143.079763,32.7563636 C144.129127,33.0621488 145.166924,33.6530579 146.336924,33.5175207 C146.43525,33.6447934 146.508788,33.8464463 146.635208,33.8877686 C148.329064,34.451405 150.036966,34.9720661 151.728343,35.5414876 C153.765928,36.2290909 155.801034,36.9282645 157.818788,37.6704132 C159.373831,38.2414876 160.904085,38.881157 162.440123,39.5042975 C162.794593,39.6489256 163.130886,39.6654545 163.480398,39.5233058 C163.658047,39.8166942 163.909233,39.9720661 164.24222,40.0910744 C166.669805,40.9621488 169.009805,42.0323967 171.30436,43.2109091 C172.584254,43.8687603 173.898025,44.4604959 175.196924,45.081157 C175.256415,45.1100826 175.318386,45.1357025 175.381182,45.1538843 C175.810017,45.2728926 175.989318,46.0166942 176.536309,45.727438 C177.087432,45.434876 177.281606,44.773719 177.423725,44.2381818 C178.179763,41.3745455 179.563767,38.8538843 181.669106,36.8133884 C183.44311,35.0943802 185.390631,33.5745455 188.120631,33.6571901 C189.028703,33.6844628 189.941733,33.4282645 190.871288,33.4654545 C191.581055,33.4935537 191.965271,33.8315702 191.875208,34.5076033 C191.502559,37.3166942 191.638068,40.1547107 191.360441,42.9679339 C191.318301,43.3935537 191.317475,43.8249587 191.317475,44.2538843 C191.313343,49.1439669 191.224106,54.0357025 191.353004,58.9224793 C191.415801,61.2919008 191.313343,63.6852893 191.569487,66.0290909 C192.067729,70.5894215 191.783492,75.1704132 192.171839,79.7175207 C192.318915,81.4390083 192.040462,83.205124 192.636203,84.9067769 C192.932008,85.7530579 192.478386,86.2646281 191.654593,86.1604959 C188.922941,85.8166942 186.183025,86.0538843 183.448894,86.0282645 C182.634191,86.0216529 182.392093,85.7654545 182.258237,84.9935537 C181.875674,82.7968595 181.206394,80.6902479 180.306585,78.6282645 C177.948407,73.2266116 174.28472,68.7877686 170.100483,64.7761983 C168.125695,62.8819835 165.984826,61.1249587 163.743153,59.5117355 C161.852644,58.151405 159.946436,56.82 157.963386,55.5993388" id="Fill-8" fill="#7B7B7B"></path>
                <path d="M163.48015,39.5236364 C163.130638,39.6657851 162.794345,39.6484298 162.439875,39.5046281 C160.903837,38.8814876 159.373583,38.2418182 157.81854,37.6699174 C155.800786,36.9277686 153.76568,36.2294215 151.728095,35.5418182 C150.036718,34.9715702 148.328816,34.4509091 146.63496,33.8880992 C146.50854,33.8459504 146.435002,33.6442975 146.336676,33.5170248 C146.700235,32.1947107 147.170383,30.8897521 147.405044,29.5442975 C147.899155,26.7203306 148.175956,23.9153719 147.28854,21.0550413 C146.524239,18.5872727 145.146845,16.7087603 142.962184,15.4484298 C141.016316,14.3252893 138.870489,13.7616529 136.6346,13.4864463 C134.712693,13.2500826 132.802354,12.9343802 130.855659,13.0252893 C130.159112,13.0575207 129.93354,12.6467769 129.968244,12.0153719 C130.140934,8.8492562 130.138456,5.6831405 129.96907,2.51785124 C129.930235,1.7922314 130.245044,1.47487603 130.956464,1.50628099 C132.932078,1.5938843 134.934133,1.50710744 136.879176,1.80132231 C140.417269,2.33520661 143.978498,2.17404959 147.51907,2.44016529 C155.281888,3.02363636 163.049663,3.26578512 170.830659,3.19966942 C173.375574,3.17735537 175.924621,3.25421488 178.460447,3.10793388 C180.338561,3.00049587 182.250553,3.14512397 184.084049,2.86991736 C187.284197,2.38892562 190.506655,2.64429752 193.695235,2.25834711 C194.259578,2.19057851 194.484324,2.35008264 194.484324,2.92198347 C194.481019,6.62363636 194.493413,10.3244628 194.490108,14.0261157 C194.490108,14.3922314 194.460362,14.752562 193.89354,14.691405 C191.248646,14.4021488 188.642587,14.7476033 186.029917,15.1335537 C183.35032,15.5294215 180.77979,16.2459504 178.331549,17.3947107 C175.523879,18.7095868 173.137608,20.5723967 171.195871,22.9880992 C169.486316,25.1170248 168.194028,27.4955372 167.063689,29.9765289 C165.992015,32.3294215 165.155828,34.7723967 164.199833,37.1690909 C163.897417,37.9294215 163.716464,38.737686 163.48015,39.5236364" id="Fill-10" fill="#AC0032"></path>
                <path d="M126.436761,151.031322 C126.235977,150.456116 126.854854,150.154463 126.901125,149.693306 C127.034155,148.382562 127.644769,147.209008 128.066994,146.010661 C128.47104,144.861074 128.786676,143.666033 129.222947,142.519752 C129.64104,141.420579 130.068222,140.286694 130.366506,139.123884 C130.721803,137.742893 131.209303,136.395785 131.640617,135.035455 C133.051061,135.188347 134.321867,134.518926 135.684388,134.345372 C139.302629,133.883388 142.836591,132.996612 146.372206,132.098264 C147.7339,131.751983 149.107989,131.382562 150.447375,130.985868 C151.752883,130.598264 153.075744,130.195785 154.3796,129.786694 C156.221358,129.209008 158.007756,128.491653 159.828032,127.867686 C161.559896,127.273471 163.251273,126.55281 164.931909,125.823884 C167.024854,124.914793 169.13515,124.028017 171.152078,122.968512 C172.915341,122.042066 174.690998,121.132149 176.417078,120.124711 C177.91015,119.25281 179.431316,118.428017 180.8839,117.485041 C183.079303,116.061901 185.278011,114.642893 187.371782,113.069339 C188.445934,112.263554 189.567184,111.514793 190.484345,110.511488 C190.867735,110.092479 191.147841,110.302397 191.229642,110.759421 C191.285002,111.072645 191.266824,111.425537 191.182544,111.734628 C190.437248,114.480083 189.244939,117.022231 187.689896,119.404876 C185.501104,122.760248 182.871083,125.73876 179.987396,128.498264 C177.399515,130.974298 174.609197,133.195785 171.630489,135.202397 C168.736061,137.151983 165.601189,138.594132 162.476231,140.096612 C159.745405,141.409008 156.973265,142.634628 154.166422,143.742893 C151.5521,144.774298 148.868371,145.665207 146.177206,146.512314 C143.796718,147.261901 141.388964,147.899917 138.979557,148.507355 C135.860383,149.294132 132.742862,150.151157 129.524536,150.470992 C128.476824,150.57595 127.529917,151.205702 126.436761,151.031322" id="Fill-12" fill="#7B7B7B"></path>
                <path d="M95.6710487,198.837686 C97.4161335,198.691405 99.0876801,199.325289 100.82285,199.326116 C101.174015,199.326116 101.502871,199.492231 101.835858,199.221983 C102.57785,198.620331 103.411557,198.694711 104.257659,198.946777 C104.35929,199.362479 104.331197,199.609587 103.768506,199.602975 C101.260773,199.575702 98.752214,199.573223 96.2436547,199.602149 C95.6074258,199.610413 95.5305826,199.340165 95.6710487,198.837686" id="Fill-14" fill="#AC0032"></path>
            </g>
        </g>
    </g>
</svg>