<?xml version="1.0" encoding="UTF-8"?>
<svg id="a" xmlns="http://www.w3.org/2000/svg" version="1.1" viewBox="0 0 316.8 86.4">
  <!-- Generator: Adobe Illustrator 29.8.2, SVG Export Plug-In . SVG Version: 2.1.1 Build 3)  -->
  <path d="M121.1,3.2V0h-23.3v3.3h.2c5.8,0,8.6,2.6,8.6,8s-.9,5.8-2.5,11.7l-12.6,44L66.8,0h0c0,0-3.8,0-3.8,0l-21.8,67-14.8-48.3c-1.7-5.6-2.6-9-2.6-10.4s.5-2.6,1.5-3.4,3.5-1.4,7.2-1.6h.2V0H.9v3.2h.2c3,0,5.1.7,6.4,1.6,1.3.9,2.3,2.3,3.1,4.3s2.1,6,3.9,11.8l20.3,65.4h0c0,0,3.3,0,3.3,0L60.3,17.6l25.4,68.7h0c0,0,3.1,0,3.1,0l18.5-63.3c2.5-8.5,4.6-13.9,6.3-16.1,1.6-2.2,4.1-3.4,7.5-3.7h.2Z" fill="#004e38"/>
  <path d="M301.8,8.2c.4-1.8,1.3-3.1,2.5-3.8,1.3-.7,4.1-1,8.3-1h3.4V0h-26.6l-31.2,70.9L226.6,0h-26.5v3.3h2.6c4.3,0,7.2.4,8.4,1.1,1.2.7,2.1,2.1,2.5,4,.4,2,.6,6.5.6,13.2v37.4c0,7.1-.3,11.9-.8,14.5s-1.9,4.8-4.2,6.5c-2.3,1.8-5.3,2.8-8.8,3h-.2v3.3h31.1v-3.3h-.2c-3.9-.3-7-1.3-9.1-3.2-2.2-1.9-3.5-4-3.9-6.5s-.6-7.2-.6-14V10l33.9,76.3h0c0,0,3.3,0,3.3,0l33.7-76.4v53.8c0,7.2-.2,11.7-.6,13.7-.4,1.9-1.3,3.3-2.7,4.2-1.4.9-3.9,1.4-7.5,1.4h-3.3v3.3h41.5v-3.3h-4c-3.9,0-6.5-.5-7.8-1.5s-2.2-2.5-2.5-4.6-.5-6.6-.5-13.2V21.7c0-7.1.2-11.6.7-13.5h0Z" fill="#004e38"/>
  <path d="M185.4,12.8c-3.5,0-6.3.9-8.6,2.7-2.2,1.8-3.4,3.9-3.4,6.2s.4,2.7,1.3,3.8c.9,1.1,2.2,1.6,3.9,1.6s2.6-.5,3.6-1.4,1.5-2.1,1.5-3.3-.4-2.1-1.2-3.3c-.6-.9-.9-1.5-.9-2s.3-1.2.9-1.6c.6-.3,1.5-.5,2.8-.5,2.5,0,4.6.9,6.2,2.6,1.6,1.7,2.4,3.9,2.4,6.6,0,4.5-1.9,7.9-5.5,10-3.7,2.2-9.5,3.4-17.6,3.4s-15.3,1.7-18.8,5.1c-3.5,3.4-5.2,7.2-5.2,11.2s1,5.2,3,7.2c2,1.9,4.3,2.9,7.1,2.9s4.2-.7,5.7-2.1c1.5-1.4,2.2-3.2,2.2-5.3s-.4-2.7-1.3-3.5c-.9-.8-1.9-1.3-3.1-1.3s-2.3.5-3.1,1.5-1.2,2.2-1.2,3.7,0,.5,0,.9v.6c0,1.4-.6,2-1.8,2s-2.2-.6-3.3-1.8-1.6-2.7-1.6-4.6c0-3.1,1.5-5.7,4.4-7.7,2.9-2.1,6.3-3.1,10-3.1s8.4,1.3,11,4c2.7,2.6,4.1,5.8,4.1,9.3,0,5.4-2.8,10-8.4,13.9-5.6,3.9-12.2,5.9-20,5.9s-15.1-2.5-20.6-7.5c-5.5-4.9-8.3-10.2-8.3-15.7s1-5.4,2.8-7.4c1.9-2.1,3.9-3.1,6-3.1s3.3.7,5,2.2c1.6,1.4,3,2.1,4,2.1s1.7-.3,2.2-.9c.5-.6.7-1.3.7-2,0-2.7-2.4-4.1-7-4.1s-1.2-.2-1.6-.5c-.4-.4-.8-1.2-1.3-2.4s-.7-2.7-.7-4.5c0-3.9,1.6-7.5,4.8-10.4s6.7-4.6,10.3-4.6,4.3.6,5.9,1.9c1.6,1.2,2.4,2.9,2.4,4.9s-.3,2.7-.8,4c-.3.8-.5,1.3-.5,1.6,0,.7.3,1,1,1,1.3,0,2.5-.9,3.6-2.6s1.7-3.6,1.7-5.6-1.2-5-3.5-7c-2.3-1.9-5.3-2.9-8.7-2.9s-6.2.9-9,2.5c-2.9,1.7-5.3,3.9-7.2,6.6s-2.8,5.7-2.8,8.8.8,5.8,2.2,9c-5.2.7-9,2.7-11.6,5.8-2.6,3.2-4,7.1-4,11.6s.9,7.4,2.7,10.6c1.8,3.3,4.2,6.1,7.3,8.4s6.3,4,9.6,5.2,7.9,1.8,13.2,1.8,12.4-1,17.1-3,8.6-5.1,11.9-9.2c3.3-4.2,4.9-8.5,4.9-12.9s-2.7-10.7-7.9-14.4c5.5-.2,9.7-.9,12.8-2.1,3.1-1.2,5.7-3.2,7.7-6.1,2-2.8,3.1-6,3.1-9.4s-1.2-6.8-3.6-9.3c-2.4-2.6-5.4-3.9-8.8-3.9v-.2Z" fill="#b79257"/>
</svg>